<?xml version="1.0" encoding="utf-8"?>
<!-- Generator: Adobe Illustrator 25.3.1, SVG Export Plug-In . SVG Version: 6.00 Build 0)  -->
<svg version="1.1" id="Capa_1" xmlns="http://www.w3.org/2000/svg" xmlns:xlink="http://www.w3.org/1999/xlink" x="0px" y="0px"
	 viewBox="0 0 2103.5 2229.8" style="enable-background:new 0 0 2103.5 2229.8;" xml:space="preserve">
<style type="text/css">
	.st0{fill-rule:evenodd;clip-rule:evenodd;fill:url(#SVGID_1_);}
</style>
<linearGradient id="SVGID_1_" gradientUnits="userSpaceOnUse" x1="693.2799" y1="1535.1473" x2="694.2671" y2="1534.1473" gradientTransform="matrix(1580.8486 638.7043 642.8245 -1591.0466 -2082192.25 1999662.25)">
	<stop  offset="0" style="stop-color:#FF8F71"/>
	<stop  offset="1" style="stop-color:#FF3E55"/>
</linearGradient>
<path class="st0" d="M1756.1,1498.7l-295.3,731L731.2,1935l257.9-638.3c20.7-51.2,79-75.9,130.2-55.3L1756.1,1498.7L1756.1,1498.7z
	 M541.5,1006.8c201.4,81.4,298.8,310.7,217.4,512.1l-0.6,1.5c-81.4,201.4-310.7,298.8-512.1,217.4
	c-201.4-81.4-298.8-310.7-217.4-512.1l0.6-1.5C110.8,1022.7,340,925.4,541.5,1006.8L541.5,1006.8z M1252.2,294.7L994.3,933
	c-20.7,51.2-79,75.9-130.2,55.3L227.3,731L522.7,0L1252.2,294.7L1252.2,294.7z M2103.5,638.7l-295.3,731l-636.8-257.3
	c-51.2-20.7-75.9-79-55.3-130.2L1374.1,344L2103.5,638.7z"/>
</svg>
