<svg id="Capa_1" data-name="Capa 1" xmlns="http://www.w3.org/2000/svg" xmlns:xlink="http://www.w3.org/1999/xlink" viewBox="0 0 925 882"><defs><style>.cls-1,.cls-8{fill:#fff;}.cls-1,.cls-2{fill-rule:evenodd;}.cls-2,.cls-9{fill:#2d2e40;}.cls-2{opacity:0.08;}.cls-2,.cls-3,.cls-4{isolation:isolate;}.cls-10,.cls-3,.cls-4{fill:none;}.cls-3,.cls-4{stroke:#2d2e40;}.cls-3{opacity:0.5;}.cls-4{opacity:0.25;}.cls-5{filter:url(#b);}.cls-6{fill:url(#Degradado_sin_nombre);}.cls-7{mask:url(#mask);}.cls-10{stroke-linecap:round;stroke-width:8px;stroke:url(#Degradado_sin_nombre_2);}</style><filter id="b" x="-10.9%" y="-11.7%" width="121.8%" height="132.8%" name="b"><feOffset result="shadowOffsetOuter1" dy="20" in="SourceAlpha"/><feGaussianBlur result="shadowBlurOuter1" stdDeviation="20" in="shadowOffsetOuter1"/></filter><linearGradient id="Degradado_sin_nombre" x1="-496.22" y1="981.49" x2="-495.22" y2="981.05" gradientTransform="matrix(642, 0, 0, -427, 318617, 419458)" gradientUnits="userSpaceOnUse"><stop offset="0" stop-color="#ff8f71"/><stop offset="1" stop-color="#ff3e55"/></linearGradient><mask id="mask" x="45.5" y="242" width="638.01" height="427" maskUnits="userSpaceOnUse"><g id="d"><path id="a" class="cls-1" d="M60.41,242H668.6a15,15,0,0,1,14.91,15V654a15,15,0,0,1-14.91,15H60.41A15,15,0,0,1,45.5,654V257A15,15,0,0,1,60.41,242Z"/></g></mask><linearGradient id="Degradado_sin_nombre_2" x1="-495.69" y1="980.93" x2="-494.69" y2="980.76" gradientTransform="matrix(381, 0, 0, -155, 189109, 152482.15)" xlink:href="#Degradado_sin_nombre"/></defs><path class="cls-2" d="M487.73,746h0c164.66,0,298.14-134.31,298.14-300v-2c0-165.69-133.48-300-298.14-300h0C323.08,144,189.6,278.31,189.6,444v2C189.6,611.69,323.08,746,487.73,746Z"/><path class="cls-3" d="M487.73,781.5h0c186.34,0,337.39-152,337.39-339.5v-2c0-187.5-151-339.5-337.39-339.5h0c-186.33,0-337.39,152-337.39,339.5v2C150.34,629.5,301.4,781.5,487.73,781.5Z"/><path class="cls-4" d="M487.73,881.5h0C729,881.5,924.5,684.73,924.5,442v-2C924.5,197.27,729,.5,487.73.5h0C246.51.5,51,197.27,51,440v2C51,684.73,246.51,881.5,487.73,881.5Z"/><g class="cls-5"><path id="a-4" data-name="a" d="M60.41,242H668.6a15,15,0,0,1,14.91,15V654a15,15,0,0,1-14.91,15H60.41A15,15,0,0,1,45.5,654V257A15,15,0,0,1,60.41,242Z"/></g><path id="a-5" data-name="a" class="cls-6" d="M60.41,242H668.6a15,15,0,0,1,14.91,15V654a15,15,0,0,1-14.91,15H60.41A15,15,0,0,1,45.5,654V257A15,15,0,0,1,60.41,242Z"/><g class="cls-7"><path class="cls-8" d="M138.44,289.71h129a3,3,0,0,1,3,3V423.87a3,3,0,0,1-3,3h-129a3,3,0,0,1-3-3V292.71A3,3,0,0,1,138.44,289.71Z"/></g><g class="cls-7"><ellipse class="cls-9" cx="202.93" cy="358.89" rx="39.06" ry="39.36"/></g><g class="cls-7"><path class="cls-8" d="M295.87,289.71h294.7a3,3,0,0,1,3,3V612.33a3,3,0,0,1-3,3H295.87a3,3,0,0,1-3-3V292.71A3,3,0,0,1,295.87,289.71Z"/></g><path class="cls-10" d="M253.2,526q70.24-110.05,103.91-118.94c33.66-8.88,23.61,83.14,72.08,72.48s54.38-104,91-108.37,56.06,80.94,72.07,88.81q16,7.86,39.54-34"/></svg>